<?xml version="1.0" encoding="UTF-8" standalone="no"?>
<!-- Created with Inkscape (http://www.inkscape.org/) -->

<svg
   width="128"
   height="128"
   viewBox="0 0 33.866665 33.866668"
   version="1.1"
   id="svg5"
   inkscape:version="1.1 (c68e22c387, 2021-05-23)"
   sodipodi:docname="logo.svg"
   inkscape:export-filename="D:\github clones\YTQualityofLife\images\logo\logo.png"
   inkscape:export-xdpi="96"
   inkscape:export-ydpi="96"
   xmlns:inkscape="http://www.inkscape.org/namespaces/inkscape"
   xmlns:sodipodi="http://sodipodi.sourceforge.net/DTD/sodipodi-0.dtd"
   xmlns="http://www.w3.org/2000/svg"
   xmlns:svg="http://www.w3.org/2000/svg">
  <sodipodi:namedview
     id="namedview7"
     pagecolor="#505050"
     bordercolor="#ffffff"
     borderopacity="1"
     inkscape:pageshadow="0"
     inkscape:pageopacity="0"
     inkscape:pagecheckerboard="1"
     inkscape:document-units="px"
     showgrid="false"
     units="px"
     inkscape:zoom="2"
     inkscape:cx="168.25"
     inkscape:cy="54.25"
     inkscape:window-width="1858"
     inkscape:window-height="1057"
     inkscape:window-x="-30080"
     inkscape:window-y="-32000"
     inkscape:window-maximized="0"
     inkscape:current-layer="layer3"
     showguides="true"
     inkscape:guide-bbox="true"
     inkscape:lockguides="true">
    <sodipodi:guide
       position="36.134307,24.95991"
       orientation="0,-1"
       id="guide20969" />
    <sodipodi:guide
       position="33.512258,9.1475762"
       orientation="0,-1"
       id="guide20971" />
  </sodipodi:namedview>
  <defs
     id="defs2">
    <rect
       x="-96.5"
       y="36.25"
       width="49.5"
       height="41"
       id="rect3911" />
  </defs>
  <g
     inkscape:groupmode="layer"
     id="layer2"
     inkscape:label="old stuff"
     style="display:none">
    <path
       id="path26"
       style="display:inline;opacity:1;fill:#ff0000;stroke:none;stroke-width:0.0411073"
       d="m -21.82986,7.0015971 c -4.944114,-0.09152 -8.423169,-0.326387 -9.69802,-0.654774 -0.68415,-0.176238 -1.364172,-0.567968 -1.887554,-1.08735 -0.894658,-0.88782 -1.211207,-1.757388 -1.474425,-4.050274 -0.499113,-4.34775 -0.316568,-11.027011 0.371997,-13.6113481 0.353598,-1.32713 1.470553,-2.499673 2.772014,-2.909972 1.433178,-0.451824 6.343172,-0.716309 13.290325,-0.715906 6.394173,3.08e-4 11.3314783,0.254051 12.9832683,0.667085 0.827904,0.207022 1.478635,0.580033 2.050301,1.175276 0.771999,0.803829 1.076947,1.607311 1.337619,3.524359 0.213773,1.5721511 0.308623,3.0487701 0.341738,5.3199181 0.05204,3.570748 -0.213646,7.036026 -0.671275,8.754521 -0.423908,1.59187 -1.664217,2.71593 -3.351665,3.037546 -2.21321,0.421803 -9.5130693,0.672152 -16.0643233,0.550919 z m 4.411253,-9.026878 c 2.387198,-1.352462 4.327527,-2.4712 4.311851,-2.486085 -0.03539,-0.03358 -8.579165,-4.893636 -8.650645,-4.920835 -0.04118,-0.01568 -0.05177,0.985578 -0.05177,4.923124 0,2.71855 0.01132,4.94281701 0.02507,4.94281701 0.01385,0 1.97825,-1.106559 4.365447,-2.45902101 z" />
    <text
       xml:space="preserve"
       style="font-style:normal;font-variant:normal;font-weight:bold;font-stretch:normal;font-size:6.73753px;line-height:1.25;font-family:'Segoe UI';-inkscape-font-specification:'Segoe UI Bold';display:inline;opacity:1;fill:#ffffff;fill-opacity:1;stroke:none;stroke-width:0.105274"
       x="-27.662291"
       y="10.859282"
       id="text25194"
       transform="scale(0.90594944,1.1038144)"><tspan
         sodipodi:role="line"
         id="tspan25190"
         style="font-style:normal;font-variant:normal;font-weight:bold;font-stretch:normal;font-size:6.73753px;font-family:sans-serif;-inkscape-font-specification:'sans-serif Bold';text-align:center;text-anchor:middle;fill:#ffffff;stroke-width:0.105274"
         x="-27.662291"
         y="10.859282"><tspan
   style="font-style:normal;font-variant:normal;font-weight:bold;font-stretch:normal;font-family:Arial;-inkscape-font-specification:'Arial Bold';stroke-width:0.105274"
   id="tspan25188">Q</tspan>OL</tspan><tspan
         sodipodi:role="line"
         style="font-style:normal;font-variant:normal;font-weight:bold;font-stretch:normal;font-size:6.73753px;font-family:sans-serif;-inkscape-font-specification:'sans-serif Bold';text-align:center;text-anchor:middle;fill:#ffffff;stroke-width:0.105274"
         x="-27.662291"
         y="19.359188"
         id="tspan25192"> TWEAKS</tspan></text>
    <path
       d="m 11.687152,14.522391 q 0.453816,0.395676 0.986738,0.629024 l -0.453818,1.06021 q -0.27895,-0.101463 -0.545411,-0.279004 -0.05829,-0.03551 -0.820199,-0.65946 -0.599537,0.319585 -1.3281401,0.319585 -1.4072464,0 -2.2066289,-1.009481 -0.7952187,-1.009482 -0.7952187,-2.835681 0,-1.8211241 0.7993821,-2.8306063 0.7993828,-1.0145546 2.1691572,-1.0145546 1.3572844,0 2.1525044,1.0145546 0.795218,1.0094822 0.795218,2.8306063 0,0.963828 -0.220664,1.694308 -0.166537,0.558004 -0.53292,1.080499 z M 10.69625,13.675239 q 0.237316,-0.339876 0.353894,-0.82179 0.12074,-0.481913 0.12074,-1.105865 0,-1.288484 -0.466305,-1.9225802 -0.466308,-0.6391691 -1.2198925,-0.6391691 -0.753584,0 -1.2240543,0.6391691 -0.4663059,0.6391692 -0.4663059,1.9225802 0,1.303702 0.4663059,1.953019 0.4704703,0.644241 1.1865838,0.644241 0.266461,0 0.5037772,-0.106537 Q 9.576283,13.939012 9.1890821,13.771611 l 0.3455656,-0.8573 q 0.6078643,0.25364 1.1616023,0.760918 z"
       style="font-weight:bold;font-size:6.73753px;line-height:1.25;font-family:Arial;-inkscape-font-specification:'Arial Bold';display:inline;fill:#ffffff;stroke-width:0.147062"
       id="path25321"
       transform="translate(-35.388023,-19.933433)" />
    <path
       d="m 19.606033,11.691785 q 0,1.805907 -0.849344,2.871189 -0.849344,1.060209 -2.348186,1.060209 -1.494679,0 -2.344022,-1.060209 -0.849344,-1.065282 -0.849344,-2.871189 0,-1.8211263 0.849344,-2.8762627 0.849343,-1.0602096 2.344022,-1.0602096 1.490515,0 2.344023,1.0602096 0.853507,1.0551364 0.853507,2.8762627 z m -2.119196,1.912435 q 0.233153,-0.344948 0.345566,-0.811645 0.112408,-0.471766 0.112408,-1.105863 0,-0.679753 -0.129067,-1.156593 -0.129067,-0.476841 -0.33724,-0.7710614 -0.212336,-0.3043661 -0.491287,-0.441331 -0.274788,-0.1369651 -0.574556,-0.1369651 -0.303932,0 -0.574557,0.1318921 -0.266461,0.131892 -0.491287,0.436259 -0.208172,0.2840744 -0.341403,0.7862784 -0.129067,0.497132 -0.129067,1.156594 0,0.674678 0.124894,1.151519 0.129067,0.471767 0.337239,0.771061 0.208172,0.299293 0.487125,0.441332 0.27895,0.14203 0.587046,0.14203 0.308095,0 0.587046,-0.14203 0.278951,-0.147119 0.487124,-0.451477 z"
       style="font-weight:bold;font-size:6.73753px;line-height:1.25;font-family:sans-serif;-inkscape-font-specification:'sans-serif Bold';text-align:center;text-anchor:middle;display:inline;fill:#ffffff;stroke-width:0.147062"
       id="path25323"
       transform="translate(-35.388023,-19.933433)" />
    <path
       d="M 25.297468,15.465927 H 20.825924 V 7.9125687 h 1.598764 V 14.00497 h 2.87278 z"
       style="font-weight:bold;font-size:6.73753px;line-height:1.25;font-family:sans-serif;-inkscape-font-specification:'sans-serif Bold';text-align:center;text-anchor:middle;display:inline;fill:#ffffff;stroke-width:0.147062"
       id="path25325"
       transform="translate(-35.388023,-19.933433)" />
    <path
       d="M 5.4103455,18.181341 H 3.8768056 v 4.825887 H 2.6103985 V 18.181341 H 1.0768587 v -1.157249 h 4.3334868 z"
       style="font-weight:bold;font-size:6.73753px;line-height:1.25;font-family:sans-serif;-inkscape-font-specification:'sans-serif Bold';text-align:center;text-anchor:middle;display:inline;fill:#ffffff;stroke-width:0.11649"
       id="path25327"
       transform="translate(-35.388023,-19.933433)" />
    <path
       d="m 12.949426,17.024092 -1.322473,5.983136 H 10.225331 L 9.3447822,19.10955 8.4873191,23.007228 H 7.0856967 L 5.7632246,17.024092 h 1.3224721 l 0.7552271,4.11868 0.9036342,-4.11868 h 1.263109 l 0.860762,4.11868 0.791504,-4.11868 z"
       style="font-weight:bold;font-size:6.73753px;line-height:1.25;font-family:sans-serif;-inkscape-font-specification:'sans-serif Bold';text-align:center;text-anchor:middle;display:inline;fill:#ffffff;stroke-width:0.11649"
       id="path25329"
       transform="translate(-35.388023,-19.933433)" />
    <path
       d="m 17.345573,23.007228 h -3.551877 v -5.983136 h 3.551877 v 1.157249 h -2.292065 v 1.032683 h 2.127168 v 1.157249 h -2.127168 v 1.478706 h 2.292065 z"
       style="font-weight:bold;font-size:6.73753px;line-height:1.25;font-family:sans-serif;-inkscape-font-specification:'sans-serif Bold';text-align:center;text-anchor:middle;display:inline;fill:#ffffff;stroke-width:0.11649"
       id="path25331"
       transform="translate(-35.388023,-19.933433)" />
    <path
       d="m 22.945467,23.007228 h -1.30928 l -0.339688,-1.209485 h -1.82046 l -0.339687,1.209485 h -1.2763 l 1.813864,-5.983136 h 1.457687 z m -1.955675,-2.30646 -0.603522,-2.145733 -0.603522,2.145733 z"
       style="font-weight:bold;font-size:6.73753px;line-height:1.25;font-family:sans-serif;-inkscape-font-specification:'sans-serif Bold';text-align:center;text-anchor:middle;display:inline;fill:#ffffff;stroke-width:0.11649"
       id="path25333"
       transform="translate(-35.388023,-19.933433)" />
    <path
       d="m 28.235354,23.007228 h -1.553327 l -1.46758,-2.394861 -0.296815,0.437986 v 1.956875 h -1.266407 v -5.983136 h 1.266407 v 2.708284 l 1.754502,-2.708284 h 1.467581 l -1.919398,2.768557 z"
       style="font-weight:bold;font-size:6.73753px;line-height:1.25;font-family:sans-serif;-inkscape-font-specification:'sans-serif Bold';text-align:center;text-anchor:middle;display:inline;fill:#ffffff;stroke-width:0.11649"
       id="path25335"
       transform="translate(-35.388023,-19.933433)" />
    <path
       d="m 32.789803,21.1267 q 0,0.884009 -0.616715,1.438523 -0.613415,0.550497 -1.668754,0.550497 -0.610118,0 -1.065234,-0.128583 -0.451817,-0.132601 -0.847569,-0.333513 v -1.434506 h 0.138513 q 0.392454,0.381732 0.877251,0.586661 0.488094,0.20493 0.936613,0.20493 0.115429,0 0.303411,-0.02411 0.187982,-0.02411 0.306708,-0.08037 0.145109,-0.07233 0.237451,-0.180821 0.09564,-0.108486 0.09564,-0.321458 0,-0.196892 -0.138513,-0.337531 -0.135215,-0.144656 -0.39905,-0.221001 -0.277027,-0.08037 -0.587033,-0.148675 -0.306707,-0.07233 -0.577139,-0.180821 -0.620011,-0.245111 -0.89374,-0.663006 -0.270431,-0.421913 -0.270431,-1.044739 0,-0.83579 0.613417,-1.362177 0.616713,-0.530406 1.583009,-0.530406 0.484796,0 0.9564,0.116523 0.474903,0.112505 0.821186,0.285294 v 1.378252 h -0.13521 Q 32.1632,18.406361 31.731171,18.213487 31.302439,18.016594 30.85392,18.016594 q -0.158301,0 -0.316602,0.02813 -0.155003,0.02411 -0.300112,0.09644 -0.128619,0.06028 -0.220962,0.184838 -0.09234,0.120541 -0.09234,0.277258 0,0.237075 0.148407,0.365658 0.148407,0.124565 0.560649,0.229039 0.270431,0.06831 0.517775,0.132602 0.250644,0.0643 0.537564,0.176801 0.563947,0.225021 0.83108,0.614788 0.270431,0.38575 0.270431,1.004557 z"
       style="font-weight:bold;font-size:6.73753px;line-height:1.25;font-family:sans-serif;-inkscape-font-specification:'sans-serif Bold';text-align:center;text-anchor:middle;display:inline;fill:#ffffff;stroke-width:0.11649"
       id="path25337"
       transform="translate(-35.388023,-19.933433)" />
  </g>
  <g
     inkscape:groupmode="layer"
     id="layer3"
     inkscape:label="icon"
     style="display:inline">
    <g
       id="g25456"
       transform="translate(-35.388022,-19.933433)" />
    <path
       id="path211"
       style="display:inline;opacity:1;fill:#ff0000;stroke:none;stroke-width:0.155366"
       d="M 63.996094 20.421875 C 37.739138 20.420352 19.182361 21.419272 13.765625 23.126953 C 8.8467173 24.67769 4.6254962 29.109076 3.2890625 34.125 C 0.68661224 43.892574 -0.0035984423 69.137871 1.8828125 85.570312 C 2.8776529 94.236338 4.0736935 97.52337 7.4550781 100.87891 C 9.4332148 102.84193 12.00408 104.32218 14.589844 104.98828 C 19.408178 106.22943 32.557723 107.11699 51.244141 107.46289 C 76.004786 107.92109 103.5941 106.97508 111.95898 105.38086 C 118.33674 104.1653 123.02478 99.916907 124.62695 93.900391 C 126.35657 87.405291 127.36075 74.308241 127.16406 60.8125 C 127.0389 52.228634 126.681 46.647066 125.87305 40.705078 C 124.88783 33.459542 123.73419 30.422859 120.81641 27.384766 C 118.65578 25.135028 116.19745 23.725805 113.06836 22.943359 C 106.82537 21.382286 88.163047 20.423039 63.996094 20.421875 z M 24.019531 39.248047 C 28.797025 39.248047 32.662683 40.281457 35.617188 42.349609 C 38.571689 44.373753 40.048828 47.058102 40.048828 50.402344 L 40.048828 75.617188 C 40.048828 77.773342 39.421297 79.687252 38.164062 81.359375 C 38.981264 81.799405 40.207391 82.019531 41.841797 82.019531 L 41.841797 88.751953 C 39.45305 88.751953 37.471935 88.48702 35.900391 87.958984 C 34.328847 87.430944 33.071833 86.595255 32.128906 85.451172 C 29.803021 86.331237 27.099758 86.771484 24.019531 86.771484 C 19.242038 86.771484 15.376378 85.760474 12.421875 83.736328 C 9.4673722 81.668178 7.9902344 78.961429 7.9902344 75.617188 L 7.9902344 50.402344 C 7.9902344 47.058102 9.4673722 44.373753 12.421875 42.349609 C 15.376378 40.281457 19.242038 39.248047 24.019531 39.248047 z M 66.074219 39.248047 C 70.851713 39.248047 74.717373 40.281459 77.671875 42.349609 C 80.62638 44.373756 82.103516 47.058102 82.103516 50.402344 L 82.103516 75.617188 C 82.103516 78.961429 80.62638 81.668178 77.671875 83.736328 C 74.717373 85.760474 70.851713 86.771484 66.074219 86.771484 C 61.296725 86.771484 57.431067 85.760474 54.476562 83.736328 C 51.52206 81.668178 50.044922 78.961429 50.044922 75.617188 L 50.044922 50.402344 C 50.044922 47.058102 51.52206 44.373756 54.476562 42.349609 C 57.431067 40.281459 61.296725 39.248047 66.074219 39.248047 z M 92.193359 39.908203 L 102.1875 39.908203 L 102.1875 79.511719 L 120.00977 79.511719 L 120.00977 86.111328 L 92.193359 86.111328 L 92.193359 39.908203 z M 24.019531 45.849609 C 22.133678 45.849609 20.656541 46.245051 19.587891 47.037109 C 18.519241 47.829167 17.984375 48.950239 17.984375 50.402344 L 17.984375 75.617188 C 17.984375 77.069292 18.519241 78.190364 19.587891 78.982422 C 20.656541 79.77448 22.133678 80.171875 24.019531 80.171875 C 25.905384 80.171875 27.382522 79.77448 28.451172 78.982422 C 29.519822 78.190364 30.054687 77.069292 30.054688 75.617188 L 30.054688 50.402344 C 30.054687 48.950239 29.519822 47.829167 28.451172 47.037109 C 27.382522 46.245051 25.905384 45.849609 24.019531 45.849609 z M 66.074219 45.849609 C 64.188366 45.849609 62.711229 46.245051 61.642578 47.037109 C 60.573929 47.829167 60.039062 48.950239 60.039062 50.402344 L 60.039062 75.617188 C 60.039062 77.069292 60.573929 78.190364 61.642578 78.982422 C 62.711229 79.77448 64.188366 80.171875 66.074219 80.171875 C 67.960072 80.171875 69.437211 79.77448 70.505859 78.982422 C 71.574511 78.190364 72.109375 77.069292 72.109375 75.617188 L 72.109375 50.402344 C 72.109375 48.950239 71.574511 47.829167 70.505859 47.037109 C 69.437211 46.245051 67.960072 45.849609 66.074219 45.849609 z "
       transform="scale(0.26458333)"
       inkscape:export-filename="D:\github clones\YTQualityofLife\images\logo\logoNotSquare.png"
       inkscape:export-xdpi="55.127998"
       inkscape:export-ydpi="55.127998" />
    <path
       id="path11157"
       style="display:inline;opacity:1;fill:#ff0000;stroke:none;stroke-width:0.0411073"
       d="m 52.187328,54.560451 c -4.944115,-0.09152 -8.42317,-0.326387 -9.698021,-0.654774 -0.68415,-0.176238 -1.364172,-0.567968 -1.887554,-1.08735 -0.894658,-0.88782 -1.211207,-1.757388 -1.474425,-4.050274 -0.499113,-4.34775 -0.316568,-11.027011 0.371997,-13.611348 0.353598,-1.32713 1.470553,-2.499673 2.772014,-2.909972 1.433178,-0.451824 6.343172,-0.716309 13.290326,-0.715906 6.394173,3.08e-4 11.331478,0.254051 12.983268,0.667085 0.827904,0.207022 1.478635,0.580033 2.050301,1.175276 0.771999,0.803829 1.076947,1.607311 1.337619,3.524359 0.213773,1.572151 0.308623,3.04877 0.341738,5.319918 0.05204,3.570748 -0.213646,7.036026 -0.671275,8.754521 -0.423908,1.59187 -1.664217,2.71593 -3.351665,3.037546 -2.21321,0.421803 -9.513069,0.672152 -16.064323,0.550919 z m 4.411253,-9.026878 c 2.387198,-1.352462 4.327527,-2.4712 4.311851,-2.486085 -0.03539,-0.03358 -8.579165,-4.893636 -8.650645,-4.920835 -0.04118,-0.01568 -0.05177,0.985578 -0.05177,4.923124 0,2.71855 0.01132,4.942817 0.02507,4.942817 0.01385,0 1.97825,-1.106559 4.365447,-2.459021 z" />
    <g
       id="g21195"
       transform="matrix(0.96938919,0,0,0.78896709,3.3556222,4.620525)"
       inkscape:export-filename="D:\github clones\YTQualityofLife\images\logo\logoNotSquare.png"
       inkscape:export-xdpi="55.127998"
       inkscape:export-ydpi="55.127998">
      <path
         d="m 38.280148,5.4327127 -1.626226,4.6610863 v 3.355524 H 35.439978 V 10.093799 L 33.813751,5.4327127 h 1.29411 l 0.939089,3.0577641 0.961993,-3.0577641 z"
         style="font-size:11.4523px;line-height:1.25;font-family:Bebas;-inkscape-font-specification:Bebas;stroke-width:0.28631"
         id="path21072" />
      <path
         d="m 40.81107,13.563846 q -0.870374,0 -1.408633,-0.526806 -0.538258,-0.538258 -0.538258,-1.408633 V 7.2536284 q 0,-0.8703748 0.538258,-1.3971806 0.538259,-0.5382582 1.408633,-0.5382582 0.870375,0 1.408633,0.5382582 0.538258,0.5268058 0.538258,1.3971806 v 4.3747786 q 0,0.870375 -0.538258,1.408633 -0.538258,0.526806 -1.408633,0.526806 z m 0,-1.14523 q 0.343569,0 0.538258,-0.206142 0.19469,-0.206141 0.19469,-0.584067 V 7.2536284 q 0,-0.3779259 -0.19469,-0.5840673 -0.194689,-0.2061414 -0.538258,-0.2061414 -0.343569,0 -0.538258,0.2061414 -0.194689,0.2061414 -0.194689,0.5840673 v 4.3747786 q 0,0.377926 0.194689,0.584067 0.194689,0.206142 0.538258,0.206142 z"
         style="font-size:11.4523px;line-height:1.25;font-family:Bebas;-inkscape-font-specification:Bebas;stroke-width:0.28631"
         id="path21074" />
      <path
         d="m 45.827174,13.563846 q -0.836018,0 -1.362824,-0.515354 -0.526805,-0.526806 -0.526805,-1.362824 V 5.4327127 h 1.213943 v 6.2529553 q 0,0.343569 0.183237,0.538259 0.194689,0.194689 0.492449,0.194689 0.29776,0 0.480997,-0.194689 0.194689,-0.19469 0.194689,-0.538259 V 5.4327127 h 1.191039 v 6.2529553 q 0,0.836018 -0.515353,1.362824 -0.515354,0.515354 -1.351372,0.515354 z"
         style="font-size:11.4523px;line-height:1.25;font-family:Bebas;-inkscape-font-specification:Bebas;stroke-width:0.28631"
         id="path21076" />
      <path
         d="m 48.587166,5.4327127 h 3.870878 v 1.14523 H 51.129577 V 13.449323 H 49.915633 V 6.5779427 h -1.328467 z"
         style="font-size:11.4523px;line-height:1.25;font-family:Bebas;-inkscape-font-specification:Bebas;stroke-width:0.28631"
         id="path21078" />
      <path
         d="m 55.240949,13.563846 q -0.836018,0 -1.362824,-0.515354 -0.526806,-0.526806 -0.526806,-1.362824 V 5.4327127 h 1.213944 v 6.2529553 q 0,0.343569 0.183237,0.538259 0.194689,0.194689 0.492449,0.194689 0.297759,0 0.480996,-0.194689 0.194689,-0.19469 0.194689,-0.538259 V 5.4327127 h 1.19104 v 6.2529553 q 0,0.836018 -0.515354,1.362824 -0.515353,0.515354 -1.351371,0.515354 z"
         style="font-size:11.4523px;line-height:1.25;font-family:Bebas;-inkscape-font-specification:Bebas;stroke-width:0.28631"
         id="path21080" />
      <path
         d="m 61.402274,9.3035901 q 0.44664,0.2061414 0.675686,0.6069719 0.240498,0.40083 0.240498,0.973445 v 0.652782 q 0,0.870374 -0.515354,1.39718 -0.515353,0.515354 -1.385728,0.515354 H 58.390319 V 5.4327127 h 1.923986 q 0.870375,0 1.385729,0.5268058 0.515353,0.5153535 0.515353,1.3857283 v 0.4237351 q 0,1.0765162 -0.813113,1.5346082 z M 59.604263,6.5779427 v 2.175937 h 0.538258 q 0.435187,0 0.641329,-0.2061414 0.217593,-0.2175937 0.217593,-0.6527811 v -0.572615 q 0,-0.3550213 -0.194689,-0.5497104 -0.194689,-0.1946891 -0.54971,-0.1946891 z m 1.500251,4.1800893 q 0,-0.435187 -0.217594,-0.641329 -0.206141,-0.2175933 -0.641328,-0.2175933 h -0.641329 v 2.4049833 h 0.755852 q 0.355021,0 0.54971,-0.194689 0.194689,-0.19469 0.194689,-0.549711 z"
         style="font-size:11.4523px;line-height:1.25;font-family:Bebas;-inkscape-font-specification:Bebas;stroke-width:0.28631"
         id="path21082" />
      <path
         d="m 63.417869,5.4327127 h 3.447142 v 1.14523 h -2.233198 v 2.2331985 h 1.775106 v 1.14523 h -1.775106 v 2.3477218 h 2.233198 v 1.14523 h -3.447142 z"
         style="font-size:11.4523px;line-height:1.25;font-family:Bebas;-inkscape-font-specification:Bebas;stroke-width:0.28631"
         id="path21084" />
      <path
         d="m 73.73637,12.624757 q 0.14888,0.114523 0.44664,0.114523 v 1.168135 q -0.435188,0 -0.721495,-0.137428 -0.286308,-0.137427 -0.458092,-0.435187 -0.423735,0.229046 -0.984898,0.229046 -0.870375,0 -1.408633,-0.526806 -0.538258,-0.538258 -0.538258,-1.408633 V 7.2536284 q 0,-0.8703748 0.538258,-1.3971806 0.538258,-0.5382582 1.408633,-0.5382582 0.870375,0 1.408633,0.5382582 0.538258,0.5268058 0.538258,1.3971806 v 4.3747786 q 0,0.561163 -0.229046,0.99635 z M 72.751472,7.2536284 q 0,-0.3779259 -0.194689,-0.5840673 -0.194689,-0.2061414 -0.538258,-0.2061414 -0.343569,0 -0.538258,0.2061414 -0.194689,0.2061414 -0.194689,0.5840673 v 4.3747786 q 0,0.377926 0.194689,0.584067 0.194689,0.206142 0.538258,0.206142 0.343569,0 0.538258,-0.206142 0.194689,-0.206141 0.194689,-0.584067 z"
         style="font-size:11.4523px;line-height:1.25;font-family:Bebas;-inkscape-font-specification:Bebas;stroke-width:0.28631"
         id="path21086" />
      <path
         d="m 77.126244,13.563846 q -0.836017,0 -1.362823,-0.515354 -0.526806,-0.526806 -0.526806,-1.362824 V 5.4327127 h 1.213944 v 6.2529553 q 0,0.343569 0.183237,0.538259 0.194689,0.194689 0.492448,0.194689 0.29776,0 0.480997,-0.194689 0.194689,-0.19469 0.194689,-0.538259 V 5.4327127 h 1.191039 v 6.2529553 q 0,0.836018 -0.515353,1.362824 -0.515354,0.515354 -1.351372,0.515354 z"
         style="font-size:11.4523px;line-height:1.25;font-family:Bebas;-inkscape-font-specification:Bebas;stroke-width:0.28631"
         id="path21088" />
      <path
         d="m 82.623316,11.674216 h -1.305562 l -0.263403,1.775107 H 79.840407 L 81.168874,5.4327127 H 82.7951 l 1.328467,8.0166103 H 82.886719 Z M 82.462984,10.506082 81.970535,7.1505577 81.478086,10.506082 Z"
         style="font-size:11.4523px;line-height:1.25;font-family:Bebas;-inkscape-font-specification:Bebas;stroke-width:0.28631"
         id="path21090" />
      <path
         d="m 85.062644,5.4327127 h 1.213944 v 6.8713803 h 2.164485 v 1.14523 h -3.378429 z"
         style="font-size:11.4523px;line-height:1.25;font-family:Bebas;-inkscape-font-specification:Bebas;stroke-width:0.28631"
         id="path21092" />
      <path
         d="m 89.380149,5.4327127 h 1.213944 v 8.0166103 h -1.213944 z"
         style="font-size:11.4523px;line-height:1.25;font-family:Bebas;-inkscape-font-specification:Bebas;stroke-width:0.28631"
         id="path21094" />
      <path
         d="m 91.53316,5.4327127 h 3.870877 v 1.14523 H 94.07557 V 13.449323 H 92.861627 V 6.5779427 H 91.53316 Z"
         style="font-size:11.4523px;line-height:1.25;font-family:Bebas;-inkscape-font-specification:Bebas;stroke-width:0.28631"
         id="path21096" />
      <path
         d="m 100.37433,5.4327127 -1.626223,4.6610863 v 3.355524 H 97.534163 V 10.093799 L 95.907936,5.4327127 h 1.29411 l 0.939089,3.0577641 0.961993,-3.0577641 z"
         style="font-size:11.4523px;line-height:1.25;font-family:Bebas;-inkscape-font-specification:Bebas;stroke-width:0.28631"
         id="path21098" />
      <path
         d="m 36.092759,25.760226 q -0.870375,0 -1.408633,-0.526806 -0.538258,-0.538258 -0.538258,-1.408633 v -4.374778 q 0,-0.870375 0.538258,-1.397181 0.538258,-0.538258 1.408633,-0.538258 0.870375,0 1.408633,0.538258 0.538258,0.526806 0.538258,1.397181 v 4.374778 q 0,0.870375 -0.538258,1.408633 -0.538258,0.526806 -1.408633,0.526806 z m 0,-1.14523 q 0.343569,0 0.538258,-0.206141 0.194689,-0.206142 0.194689,-0.584068 v -4.374778 q 0,-0.377926 -0.194689,-0.584068 -0.194689,-0.206141 -0.538258,-0.206141 -0.343569,0 -0.538258,0.206141 -0.194689,0.206142 -0.194689,0.584068 v 4.374778 q 0,0.377926 0.194689,0.584068 0.194689,0.206141 0.538258,0.206141 z"
         style="font-size:11.4523px;line-height:1.25;font-family:Bebas;-inkscape-font-specification:Bebas;stroke-width:0.28631"
         id="path21100" />
      <path
         d="m 39.265043,17.629093 h 3.389881 v 1.14523 h -2.175937 v 2.347722 h 1.717845 v 1.14523 h -1.717845 v 3.378428 h -1.213944 z"
         style="font-size:11.4523px;line-height:1.25;font-family:Bebas;-inkscape-font-specification:Bebas;stroke-width:0.28631"
         id="path21102" />
      <path
         d="m 45.884441,17.629093 h 1.213943 v 6.87138 h 2.164485 v 1.14523 h -3.378428 z"
         style="font-size:11.4523px;line-height:1.25;font-family:Bebas;-inkscape-font-specification:Bebas;stroke-width:0.28631"
         id="path21104" />
      <path
         d="m 50.201945,17.629093 h 1.213943 v 8.01661 h -1.213943 z"
         style="font-size:11.4523px;line-height:1.25;font-family:Bebas;-inkscape-font-specification:Bebas;stroke-width:0.28631"
         id="path21106" />
      <path
         d="m 52.744334,17.629093 h 3.389881 v 1.14523 h -2.175937 v 2.347722 h 1.717845 v 1.14523 h -1.717845 v 3.378428 h -1.213944 z"
         style="font-size:11.4523px;line-height:1.25;font-family:Bebas;-inkscape-font-specification:Bebas;stroke-width:0.28631"
         id="path21108" />
      <path
         d="m 57.073285,17.629093 h 3.447143 v 1.14523 h -2.233199 v 2.233199 h 1.775107 v 1.14523 h -1.775107 v 2.347721 h 2.233199 v 1.14523 h -3.447143 z"
         style="font-size:11.4523px;line-height:1.25;font-family:Bebas;-inkscape-font-specification:Bebas;stroke-width:0.28631"
         id="path21110" />
      <path
         d="m 63.440745,17.629093 h 3.870877 v 1.14523 h -1.328466 v 6.87138 h -1.213944 v -6.87138 h -1.328467 z"
         style="font-size:11.4523px;line-height:1.25;font-family:Bebas;-inkscape-font-specification:Bebas;stroke-width:0.28631"
         id="path21112" />
      <path
         d="m 74.308954,17.629093 -1.179586,8.01661 h -1.33992 l -0.641328,-5.27951 -0.641329,5.27951 h -1.339919 l -1.179587,-8.01661 h 1.225396 l 0.664233,5.416938 0.664234,-5.416938 h 1.236848 l 0.664234,5.416938 0.664233,-5.416938 z"
         style="font-size:11.4523px;line-height:1.25;font-family:Bebas;-inkscape-font-specification:Bebas;stroke-width:0.28631"
         id="path21114" />
      <path
         d="m 75.259486,17.629093 h 3.447143 v 1.14523 H 76.47343 v 2.233199 h 1.775107 v 1.14523 H 76.47343 v 2.347721 h 2.233199 v 1.14523 h -3.447143 z"
         style="font-size:11.4523px;line-height:1.25;font-family:Bebas;-inkscape-font-specification:Bebas;stroke-width:0.28631"
         id="path21116" />
      <path
         d="m 82.233912,23.870597 h -1.305563 l -0.263403,1.775106 h -1.213943 l 1.328466,-8.01661 h 1.626227 l 1.328467,8.01661 h -1.236849 z m -0.160333,-1.168135 -0.492449,-3.355524 -0.492448,3.355524 z"
         style="font-size:11.4523px;line-height:1.25;font-family:Bebas;-inkscape-font-specification:Bebas;stroke-width:0.28631"
         id="path21118" />
      <path
         d="m 86.345276,22.347441 -0.458092,0.881827 v 2.416435 H 84.67324 v -8.01661 h 1.213944 v 3.252453 l 1.603322,-3.252453 h 1.305562 l -1.706393,3.401333 1.832368,4.615277 h -1.305562 z"
         style="font-size:11.4523px;line-height:1.25;font-family:Bebas;-inkscape-font-specification:Bebas;stroke-width:0.28631"
         id="path21120" />
      <path
         d="m 91.441529,25.760226 q -0.572615,0 -1.019255,-0.25195 -0.44664,-0.251951 -0.69859,-0.698591 -0.240499,-0.446639 -0.240499,-1.019254 v -0.286308 l 1.168135,-0.125975 v 0.29776 q 0,0.435187 0.206141,0.687138 0.206142,0.25195 0.572615,0.25195 0.355022,0 0.561163,-0.206141 0.217594,-0.206142 0.217594,-0.561163 0,-0.389378 -0.229046,-0.744399 -0.217594,-0.355022 -0.881827,-0.984898 -0.89328,-0.84747 -1.225396,-1.408633 -0.320665,-0.561163 -0.320665,-1.225396 0,-0.904732 0.492449,-1.431538 0.492449,-0.538258 1.351372,-0.538258 0.858922,0 1.351371,0.538258 0.492449,0.538258 0.492449,1.44299 v 0.206141 l -1.168135,0.125976 v -0.229046 q 0,-0.458092 -0.171784,-0.698591 -0.171785,-0.240498 -0.492449,-0.240498 -0.320665,0 -0.492449,0.194689 -0.171785,0.194689 -0.171785,0.572615 0,0.377926 0.229046,0.732947 0.229046,0.343569 0.881828,0.996351 0.893279,0.893279 1.213943,1.442989 0.332117,0.538258 0.332117,1.19104 0,0.572615 -0.251951,1.019254 -0.240498,0.44664 -0.687138,0.698591 -0.446639,0.25195 -1.019254,0.25195 z"
         style="font-size:11.4523px;line-height:1.25;font-family:Bebas;-inkscape-font-specification:Bebas;stroke-width:0.28631"
         id="path21122" />
    </g>
  </g>
  <g
     inkscape:groupmode="layer"
     id="layer1"
     inkscape:label="text">
    <g
       id="g231"
       transform="matrix(0.92080235,0,0,0.92080235,-30.725192,-5.6766099)"
       style="display:inline"
       inkscape:export-filename="D:\github clones\YTQualityofLife\images\logo\g231.png"
       inkscape:export-xdpi="96"
       inkscape:export-ydpi="96">
      <g
         id="g316"
         transform="translate(1.8161133,-0.18597375)">
        <path
           d="m 3.1477971,48.356493 q 0.7672202,0.668929 1.6681769,1.063427 l -0.7672236,1.792388 q -0.4715922,-0.171533 -0.9220705,-0.471683 -0.098545,-0.06003 -1.3866264,-1.114882 -1.01357582,0.54029 -2.24535044,0.54029 -2.37908736,0 -3.73052136,-1.706626 -1.3443948,-1.706628 -1.3443948,-4.793996 0,-3.078787 1.3514334,-4.785415 1.3514346,-1.715204 3.66717183,-1.715204 2.29462167,0 3.63901867,1.715204 1.3443936,1.706628 1.3443936,4.785415 0,1.629446 -0.373054,2.864393 -0.2815471,0.943361 -0.9009533,1.826689 z M 1.4725806,46.9243 q 0.4012059,-0.574593 0.5982924,-1.389316 0.2041227,-0.814721 0.2041227,-1.869573 0,-2.178307 -0.7883341,-3.250309 -0.78833914,-1.080577 -2.06234724,-1.080577 -1.27400726,0 -2.06938316,1.080577 -0.7883357,1.080578 -0.7883357,3.250309 0,2.204036 0.7883357,3.30177 0.7953759,1.089152 2.00603562,1.089152 0.45047831,0 0.8516845,-0.180111 -0.63348415,-0.505988 -1.28808502,-0.788996 l 0.58421234,-1.449349 q 1.02765389,0.428803 1.96380196,1.286406 z"
           style="font-weight:bold;font-size:6.73753px;line-height:1.25;font-family:Arial;-inkscape-font-specification:'Arial Bold';fill:#ffffff;stroke-width:0.248623"
           id="path213" />
        <path
           d="m 16.535438,43.571078 q 0,3.053062 -1.435899,4.854025 -1.435899,1.792387 -3.969838,1.792387 -2.5269001,0 -3.9627973,-1.792387 -1.4358989,-1.800963 -1.4358989,-4.854025 0,-3.078791 1.4358989,-4.862603 1.4358972,-1.792387 3.9627973,-1.792387 2.519861,0 3.9628,1.792387 1.442937,1.783812 1.442937,4.862603 z m -3.582708,3.233158 q 0.394168,-0.583169 0.584213,-1.372165 0.190037,-0.797567 0.190037,-1.86957 0,-1.149188 -0.218201,-1.955333 -0.2182,-0.806146 -0.570137,-1.303554 -0.358974,-0.51456 -0.830568,-0.746113 -0.464556,-0.231553 -0.971343,-0.231553 -0.513827,0 -0.971345,0.222977 -0.4504779,0.222976 -0.8305682,0.737538 -0.3519351,0.480255 -0.5771751,1.32928 -0.2182003,0.84045 -0.2182003,1.955335 0,1.140609 0.2111455,1.946755 0.2182003,0.797568 0.5701354,1.303554 0.3519351,0.505984 0.8235317,0.746115 0.471592,0.240115 0.992459,0.240115 0.520864,0 0.992458,-0.240115 0.471594,-0.248719 0.823531,-0.763266 z"
           style="font-weight:bold;font-size:6.73753px;line-height:1.25;font-family:sans-serif;-inkscape-font-specification:'sans-serif Bold';text-align:center;text-anchor:middle;fill:#ffffff;stroke-width:0.248623"
           id="path215" />
        <path
           d="M 26.157364,49.951633 H 18.597782 V 37.181944 h 2.702867 v 10.299799 h 4.856715 z"
           style="font-weight:bold;font-size:6.73753px;line-height:1.25;font-family:sans-serif;-inkscape-font-specification:'sans-serif Bold';text-align:center;text-anchor:middle;fill:#ffffff;stroke-width:0.248623"
           id="path217" />
      </g>
    </g>
    <text
       xml:space="preserve"
       transform="scale(0.26458333)"
       id="text3909"
       style="font-style:normal;font-weight:normal;font-size:40px;line-height:1.25;font-family:sans-serif;white-space:pre;shape-inside:url(#rect3911);fill:#000000;fill-opacity:1;stroke:none"><tspan
         x="-96.5"
         y="113.74321"
         id="tspan21261">t</tspan></text>
    <text
       xml:space="preserve"
       style="font-style:normal;font-weight:normal;font-size:10.5833px;line-height:1.25;font-family:sans-serif;fill:#000000;fill-opacity:1;stroke:none;stroke-width:0.264583"
       x="-0.066145718"
       y="45.772915"
       id="text8999"><tspan
         sodipodi:role="line"
         id="tspan8997"
         style="font-style:normal;font-variant:normal;font-weight:normal;font-stretch:normal;font-family:Bebas;-inkscape-font-specification:Bebas;fill:#000000;stroke-width:0.264583"
         x="-0.066145718"
         y="45.772915">TWEAKS</tspan></text>
    <text
       xml:space="preserve"
       style="font-style:normal;font-weight:normal;font-size:20.8732px;line-height:1.25;font-family:sans-serif;fill:#ffffff;fill-opacity:1;stroke:none;stroke-width:0.521833"
       x="-28.142305"
       y="22.962528"
       id="text11112"
       transform="scale(1.1952294,0.83665947)"><tspan
         sodipodi:role="line"
         id="tspan11110"
         style="font-style:normal;font-variant:normal;font-weight:normal;font-stretch:normal;font-family:Bebas;-inkscape-font-specification:Bebas;fill:#ffffff;stroke-width:0.521833"
         x="-28.142305"
         y="22.962528">QoL</tspan></text>
  </g>
</svg>
