<?xml version="1.0" encoding="UTF-8" standalone="no"?>
<!-- Created with Inkscape (http://www.inkscape.org/) -->

<svg
   width="128"
   height="128"
   viewBox="0 0 33.866665 33.866668"
   version="1.1"
   id="svg5"
   inkscape:version="1.1 (c68e22c387, 2021-05-23)"
   sodipodi:docname="logo.svg"
   inkscape:export-filename="G:\Documents\1. codeprojects\Hermitcraft visibility\extension logo\logo128x128.png"
   inkscape:export-xdpi="96"
   inkscape:export-ydpi="96"
   xmlns:inkscape="http://www.inkscape.org/namespaces/inkscape"
   xmlns:sodipodi="http://sodipodi.sourceforge.net/DTD/sodipodi-0.dtd"
   xmlns="http://www.w3.org/2000/svg"
   xmlns:svg="http://www.w3.org/2000/svg">
  <sodipodi:namedview
     id="namedview7"
     pagecolor="#505050"
     bordercolor="#ffffff"
     borderopacity="1"
     inkscape:pageshadow="0"
     inkscape:pageopacity="0"
     inkscape:pagecheckerboard="1"
     inkscape:document-units="px"
     showgrid="false"
     units="px"
     inkscape:zoom="3.6203867"
     inkscape:cx="91.564804"
     inkscape:cy="33.559951"
     inkscape:window-width="1920"
     inkscape:window-height="1017"
     inkscape:window-x="1912"
     inkscape:window-y="-8"
     inkscape:window-maximized="1"
     inkscape:current-layer="layer3" />
  <defs
     id="defs2" />
  <g
     inkscape:label="150x150"
     inkscape:groupmode="layer"
     id="layer1"
     style="display:inline;opacity:1">
    <path
       id="path3902"
       style="fill:#ff0000;stroke:none;stroke-width:0.042563"
       d="m 100.25082,-48.476304 c -5.462806,-0.0888 -9.306852,-0.31669 -10.715448,-0.63532 -0.755925,-0.171 -1.507289,-0.55109 -2.085579,-1.05504 -0.988517,-0.86144 -1.338276,-1.70517 -1.629108,-3.929927 -0.551475,-4.218565 -0.34978,-10.699363 0.411023,-13.206913 0.390695,-1.287697 1.62483,-2.4254 3.062829,-2.823508 1.583533,-0.438399 7.008638,-0.695025 14.684623,-0.694634 7.06499,2.98e-4 12.52027,0.246502 14.34535,0.647264 0.91476,0.20087 1.63376,0.562798 2.2654,1.140355 0.85299,0.779945 1.18993,1.559553 1.47795,3.419639 0.2362,1.525438 0.341,2.958182 0.37759,5.161847 0.0575,3.464649 -0.23606,6.826964 -0.7417,8.494397 -0.46838,1.54457 -1.83881,2.63523 -3.70329,2.94729 -2.4454,0.40927 -10.51109,0.65218 -17.74964,0.53455 z m 4.87404,-8.758661 c 2.63764,-1.312276 4.78153,-2.397773 4.76421,-2.412215 -0.0391,-0.03258 -9.47921,-4.748232 -9.55819,-4.774622 -0.0455,-0.01522 -0.0572,0.956293 -0.0572,4.776843 0,2.637773 0.0125,4.79595 0.0277,4.79595 0.0153,0 2.18579,-1.07368 4.82343,-2.385956 z" />
    <text
       xml:space="preserve"
       style="font-style:normal;font-variant:normal;font-weight:bold;font-stretch:normal;font-size:7.03456px;line-height:1.25;font-family:'Segoe UI';-inkscape-font-specification:'Segoe UI Bold';fill:#ffffff;fill-opacity:1;stroke:none;stroke-width:0.109915"
       x="94.132828"
       y="-38.203018"
       id="text6601"
       transform="scale(0.91133703,1.0972889)"><tspan
         sodipodi:role="line"
         id="tspan6599"
         style="font-style:normal;font-variant:normal;font-weight:bold;font-stretch:normal;font-size:7.03456px;font-family:'Segoe UI';-inkscape-font-specification:'Segoe UI Bold';fill:#ffffff;stroke-width:0.109915"
         x="94.132828"
         y="-38.203018">QoL Tweaks</tspan></text>
  </g>
  <g
     inkscape:groupmode="layer"
     id="layer3"
     inkscape:label="128x128">
    <path
       id="path26"
       style="display:inline;opacity:1;fill:#ff0000;stroke:none;stroke-width:0.0385217"
       d="M 13.533796,23.613024 C 8.5896816,23.532656 5.110626,23.326405 3.8357755,23.038029 3.1516253,22.883264 2.471603,22.539263 1.9482214,22.083163 1.0535636,21.303516 0.73701403,20.539898 0.47379635,18.52638 -0.02531639,14.708366 0.15722777,8.8429166 0.84579293,6.5734579 1.1993916,5.4080274 2.316346,4.3783488 3.6178077,4.0180409 5.050985,3.6212677 9.9609788,3.3890083 16.908133,3.3893621 23.302305,3.3896319 28.23961,3.6124589 29.8914,3.9751687 c 0.827904,0.1817975 1.478635,0.5093606 2.050301,1.032078 0.771999,0.7058898 1.076947,1.4114742 1.337619,3.0949465 0.213773,1.3805982 0.308623,2.6773038 0.341738,4.6717318 0.05204,3.135683 -0.213646,6.178747 -0.671275,7.687858 -0.423908,1.397914 -1.664217,2.385017 -3.351665,2.667447 -2.21321,0.37041 -9.513068,0.590256 -16.064322,0.483794 z m 4.411253,-7.92703 c 2.387197,-1.187676 4.327526,-2.170106 4.31185,-2.183177 -0.03539,-0.02949 -8.579164,-4.2973892 -8.650644,-4.3212743 -0.04118,-0.013774 -0.05177,0.8654943 -0.05177,4.3232843 0,2.387318 0.01132,4.340577 0.02507,4.340577 0.01385,0 1.97825,-0.971734 4.365447,-2.15941 z" />
    <text
       xml:space="preserve"
       style="font-style:normal;font-variant:normal;font-weight:bold;font-stretch:normal;font-size:6.36663px;line-height:1.25;font-family:'Segoe UI';-inkscape-font-specification:'Segoe UI Bold';display:inline;opacity:1;fill:#ffffff;fill-opacity:1;stroke:none;stroke-width:0.0994787"
       x="0.48617384"
       y="26.927311"
       id="text30"
       transform="scale(0.91133702,1.0972889)"><tspan
         sodipodi:role="line"
         id="tspan28"
         style="font-style:normal;font-variant:normal;font-weight:bold;font-stretch:normal;font-size:6.36663px;font-family:'Segoe UI';-inkscape-font-specification:'Segoe UI Bold';fill:#ffffff;stroke-width:0.0994787"
         x="0.48617384"
         y="26.927311">QoL Tweaks</tspan></text>
  </g>
  <g
     inkscape:groupmode="layer"
     id="layer2"
     inkscape:label="19x19"
     style="display:inline">
    <path
       id="path16"
       style="display:inline;opacity:1;fill:#ff0000;stroke:none;stroke-width:0.00571114"
       d="m 29.724501,-68.520963 c -0.733004,-0.01192 -1.248801,-0.04249 -1.437807,-0.08525 -0.101431,-0.02295 -0.202249,-0.07395 -0.279845,-0.141566 -0.13264,-0.11559 -0.179571,-0.228801 -0.218595,-0.527321 -0.074,-0.56605 -0.04693,-1.435649 0.05515,-1.772114 0.05242,-0.172784 0.218021,-0.325442 0.410973,-0.37886 0.212479,-0.05883 0.940424,-0.09326 1.970393,-0.09321 0.947986,4e-5 1.67998,0.03307 1.92487,0.08685 0.122744,0.02695 0.21922,0.07552 0.303974,0.153014 0.114455,0.104653 0.159665,0.209262 0.198312,0.45885 0.03169,0.204684 0.04576,0.396931 0.05067,0.692621 0.0077,0.464889 -0.03167,0.916047 -0.09952,1.139784 -0.06285,0.207252 -0.246733,0.353597 -0.49691,0.39547 -0.328126,0.05492 -1.410387,0.08751 -2.38166,0.07173 z m 0.654001,-1.175244 c 0.353921,-0.176082 0.641591,-0.321735 0.639267,-0.323673 -0.0052,-0.0044 -1.271928,-0.637121 -1.282526,-0.640662 -0.0061,-0.002 -0.0077,0.128316 -0.0077,0.64096 0,0.353939 0.0017,0.643525 0.0037,0.643525 0.002,0 0.293291,-0.144067 0.647212,-0.32015 z" />
    <text
       xml:space="preserve"
       style="font-style:normal;font-variant:normal;font-weight:bold;font-stretch:normal;font-size:0.943903px;line-height:1.25;font-family:'Segoe UI';-inkscape-font-specification:'Segoe UI Bold';display:inline;opacity:1;fill:#ffffff;fill-opacity:1;stroke:none;stroke-width:0.0147485"
       x="30.486744"
       y="-61.643929"
       id="text20"
       transform="scale(0.91133702,1.0972889)"><tspan
         sodipodi:role="line"
         id="tspan18"
         style="font-style:normal;font-variant:normal;font-weight:bold;font-stretch:normal;font-size:0.943903px;font-family:'Segoe UI';-inkscape-font-specification:'Segoe UI Bold';fill:#ffffff;stroke-width:0.0147485"
         x="30.486744"
         y="-61.643929">QoL Tweaks</tspan></text>
  </g>
</svg>
